<svg id="visual" viewBox="0 0 1366 768" width="1366" height="768" xmlns="http://www.w3.org/2000/svg" xmlns:xlink="http://www.w3.org/1999/xlink" version="1.1"><rect x="0" y="0" width="1366" height="768" fill="#001220"></rect><defs><linearGradient id="grad1_0" x1="43.8%" y1="0%" x2="100%" y2="100%"><stop offset="14.427083333333334%" stop-color="#001220" stop-opacity="1"></stop><stop offset="85.57291666666667%" stop-color="#001220" stop-opacity="1"></stop></linearGradient></defs><defs><linearGradient id="grad2_0" x1="0%" y1="0%" x2="56.2%" y2="100%"><stop offset="14.427083333333334%" stop-color="#001220" stop-opacity="1"></stop><stop offset="85.57291666666667%" stop-color="#001220" stop-opacity="1"></stop></linearGradient></defs><g transform="translate(1366, 0)"><path d="M0 691.2C-61.8 613 -123.6 534.9 -212.4 512.8C-301.2 490.6 -417.1 524.5 -488.8 488.8C-560.4 453 -588 347.6 -614.4 254.5C-640.8 161.4 -666 80.7 -691.2 0L0 0Z" fill="#FBAE3C"></path></g><g transform="translate(0, 768)"><path d="M0 -691.2C95.9 -687.9 191.7 -684.7 264.5 -638.6C337.3 -592.5 387 -503.7 429.9 -429.9C472.9 -356.2 509.1 -297.6 551.6 -228.5C594 -159.3 642.6 -79.7 691.2 0L0 0Z" fill="#FBAE3C"></path></g></svg>