<svg xmlns="http://www.w3.org/2000/svg" version="1.1" xmlns:xlink="http://www.w3.org/1999/xlink" xmlns:svgjs="http://svgjs.com/svgjs" width="1440" height="560" preserveAspectRatio="none" viewBox="0 0 1440 560"><g mask="url(&quot;#SvgjsMask1004&quot;)" fill="none"><rect width="1440" height="560" x="0" y="0" fill="rgba(32, 14, 71, 1)"></rect><path d="M 0,144 C 57.6,134 172.8,85.6 288,94 C 403.2,102.4 460.8,199.2 576,186 C 691.2,172.8 748.8,21.8 864,28 C 979.2,34.2 1036.8,213.4 1152,217 C 1267.2,220.6 1382.4,80.2 1440,46L1440 560L0 560z" fill="rgba(63, 24, 126, 1)"></path><path d="M 0,424 C 96,414 288,348.4 480,374 C 672,399.6 768,567.6 960,552 C 1152,536.4 1344,347.2 1440,296L1440 560L0 560z" fill="rgba(61, 34, 171, 1)"></path></g><defs><mask id="SvgjsMask1004"><rect width="1440" height="560" fill="#ffffff"></rect></mask></defs></svg>